<?xml version="1.0" encoding="utf-8"?>
<!-- Generator: Adobe Illustrator 16.0.0, SVG Export Plug-In . SVG Version: 6.00 Build 0)  -->
<!DOCTYPE svg PUBLIC "-//W3C//DTD SVG 1.1//EN" "http://www.w3.org/Graphics/SVG/1.1/DTD/svg11.dtd">
<svg version="1.1" id="Layer_1" xmlns="http://www.w3.org/2000/svg" xmlns:xlink="http://www.w3.org/1999/xlink" x="0px" y="0px"
	 width="283.46px" height="283.46px" viewBox="0 0 283.46 283.46" enable-background="new 0 0 283.46 283.46" xml:space="preserve">
<g>
	<defs>
		<path id="SVGID_1_" d="M8.979,142.452c0.08,37,45.346,72.546,45.346,72.546s45.344-35.626,45.344-72.546
			c0-25.048-20.303-45.344-45.344-45.344C29.281,97.108,8.925,117.403,8.979,142.452"/>
	</defs>
	<clipPath id="SVGID_2_">
		<use xlink:href="#SVGID_1_"  overflow="visible"/>
	</clipPath>
	
		<linearGradient id="SVGID_3_" gradientUnits="userSpaceOnUse" x1="-0.3022" y1="282.7959" x2="1.6439" y2="282.7959" gradientTransform="matrix(-0.5949 60.6465 60.6465 0.5949 -17095.8672 -51.2346)">
		<stop  offset="0" style="stop-color:#001738"/>
		<stop  offset="0.0239" style="stop-color:#001E3E"/>
		<stop  offset="0.1964" style="stop-color:#004E69"/>
		<stop  offset="0.3683" style="stop-color:#00768D"/>
		<stop  offset="0.5366" style="stop-color:#0094A8"/>
		<stop  offset="0.7002" style="stop-color:#00AABC"/>
		<stop  offset="0.8572" style="stop-color:#00B8C8"/>
		<stop  offset="1" style="stop-color:#00BCCC"/>
	</linearGradient>
	<polygon clip-path="url(#SVGID_2_)" fill="url(#SVGID_3_)" points="100.824,97.12 99.66,215.887 7.768,214.987 8.934,96.218 	"/>
</g>
<g>
	<defs>
		<rect id="SVGID_4_" x="223.205" y="124.976" width="7.269" height="40.795"/>
	</defs>
	<clipPath id="SVGID_5_">
		<use xlink:href="#SVGID_4_"  overflow="visible"/>
	</clipPath>
	
		<linearGradient id="SVGID_6_" gradientUnits="userSpaceOnUse" x1="-0.457" y1="284.7676" x2="1.4895" y2="284.7676" gradientTransform="matrix(0 33.2409 33.2409 0 -9239.0918 121.149)">
		<stop  offset="0" style="stop-color:#001738"/>
		<stop  offset="0.0239" style="stop-color:#001E3E"/>
		<stop  offset="0.1964" style="stop-color:#004E69"/>
		<stop  offset="0.3683" style="stop-color:#00768D"/>
		<stop  offset="0.5366" style="stop-color:#0094A8"/>
		<stop  offset="0.7002" style="stop-color:#00AABC"/>
		<stop  offset="0.8572" style="stop-color:#00B8C8"/>
		<stop  offset="1" style="stop-color:#00BCCC"/>
	</linearGradient>
	<rect x="223.202" y="124.976" clip-path="url(#SVGID_5_)" fill="url(#SVGID_6_)" width="7.271" height="40.795"/>
</g>
<g>
	<defs>
		<rect id="SVGID_7_" x="223.205" y="111.762" width="7.269" height="8.432"/>
	</defs>
	<clipPath id="SVGID_8_">
		<use xlink:href="#SVGID_7_"  overflow="visible"/>
	</clipPath>
	
		<linearGradient id="SVGID_9_" gradientUnits="userSpaceOnUse" x1="-0.457" y1="284.7676" x2="1.4868" y2="284.7676" gradientTransform="matrix(0 33.2405 33.2405 0 -9238.9727 121.1425)">
		<stop  offset="0" style="stop-color:#001738"/>
		<stop  offset="0.0239" style="stop-color:#001E3E"/>
		<stop  offset="0.1964" style="stop-color:#004E69"/>
		<stop  offset="0.3683" style="stop-color:#00768D"/>
		<stop  offset="0.5366" style="stop-color:#0094A8"/>
		<stop  offset="0.7002" style="stop-color:#00AABC"/>
		<stop  offset="0.8572" style="stop-color:#00B8C8"/>
		<stop  offset="1" style="stop-color:#00BCCC"/>
	</linearGradient>
	<rect x="223.202" y="111.762" clip-path="url(#SVGID_8_)" fill="url(#SVGID_9_)" width="7.271" height="8.432"/>
</g>
<g>
	<defs>
		<path id="SVGID_10_" d="M251.333,125.587c-1.843,0.851-3.53,2.193-5.064,4.018v-4.627h-7.043v40.793h7.344v-18.545
			c0-5.66,0.82-9.715,2.462-12.179c1.645-2.465,4.299-3.691,7.958-3.691c3.36,0,5.846,1.043,7.453,3.136
			c1.608,2.083,2.409,5.297,2.409,9.621v21.658h7.383v-23.254c0-5.853-1.431-10.357-4.286-13.495
			c-2.853-3.145-6.951-4.715-12.295-4.715C255.279,124.307,253.174,124.734,251.333,125.587"/>
	</defs>
	<clipPath id="SVGID_11_">
		<use xlink:href="#SVGID_10_"  overflow="visible"/>
	</clipPath>
	
		<linearGradient id="SVGID_12_" gradientUnits="userSpaceOnUse" x1="-0.4565" y1="285.2041" x2="1.4894" y2="285.2041" gradientTransform="matrix(0 33.2413 33.2413 0 -9223.8418 121.1809)">
		<stop  offset="0" style="stop-color:#001738"/>
		<stop  offset="0.0239" style="stop-color:#001E3E"/>
		<stop  offset="0.1964" style="stop-color:#004E69"/>
		<stop  offset="0.3683" style="stop-color:#00768D"/>
		<stop  offset="0.5366" style="stop-color:#0094A8"/>
		<stop  offset="0.7002" style="stop-color:#00AABC"/>
		<stop  offset="0.8572" style="stop-color:#00B8C8"/>
		<stop  offset="1" style="stop-color:#00BCCC"/>
	</linearGradient>
	<rect x="239.226" y="124.307" clip-path="url(#SVGID_11_)" fill="url(#SVGID_12_)" width="35.009" height="41.464"/>
</g>
<path fill="#001738" d="M104.152,145.412c0-2.897,0.488-5.592,1.464-8.112c0.977-2.501,2.419-4.757,4.321-6.759
	c2.053-2.203,4.364-3.901,6.935-5.081c2.576-1.187,5.243-1.785,8.015-1.785c2.965,0,5.715,0.539,8.248,1.601
	c2.54,1.061,4.83,2.627,6.881,4.709c2.004,2.047,3.542,4.356,4.62,6.93c1.072,2.575,1.61,5.233,1.61,7.975
	c0,2.792-0.498,5.515-1.5,8.161c-1.002,2.645-2.403,4.955-4.21,6.934c-2.079,2.275-4.406,3.997-6.99,5.171
	c-2.583,1.176-5.337,1.769-8.253,1.769c-2.993,0-5.749-0.543-8.268-1.621c-2.523-1.07-4.784-2.663-6.788-4.762
	c-1.904-2.002-3.394-4.337-4.468-6.994C104.693,150.896,104.152,148.187,104.152,145.412 M111.754,145.333
	c0,4.085,1.294,7.479,3.878,10.207c2.583,2.714,5.805,4.078,9.66,4.078c3.784,0,6.957-1.372,9.511-4.104
	c2.56-2.73,3.84-6.15,3.84-10.248c0-4.136-1.281-7.542-3.84-10.241c-2.554-2.692-5.751-4.046-9.585-4.046
	c-3.806,0-7.003,1.369-9.586,4.104C113.048,137.809,111.754,141.233,111.754,145.333"/>
<path fill="#001738" d="M159.673,160.839v18.136h-7.343v-53.999h7.417v5.01c1.879-1.934,3.973-3.396,6.287-4.398
	c2.31-0.999,4.775-1.505,7.396-1.505c6.159,0,11.26,2.04,15.322,6.126c4.05,4.074,6.08,9.195,6.08,15.352
	c0,2.846-0.505,5.549-1.525,8.125c-1.011,2.568-2.471,4.855-4.374,6.855c-2.053,2.15-4.293,3.747-6.73,4.764
	c-2.433,1.03-5.212,1.538-8.327,1.538c-2.768,0-5.336-0.496-7.694-1.494C163.82,164.34,161.645,162.842,159.673,160.839
	 M159.448,145.115c0,4.025,1.354,7.466,4.062,10.307c2.709,2.845,5.94,4.263,9.698,4.263c3.836,0,7.122-1.363,9.864-4.093
	c2.746-2.732,4.117-6.052,4.117-9.961c0-4.129-1.361-7.587-4.08-10.378c-2.717-2.8-6.042-4.193-9.975-4.193
	c-3.612,0-6.794,1.4-9.549,4.209C160.827,138.074,159.448,141.357,159.448,145.115"/>
<path fill="#FFFFFF" d="M96.334,125.427c-0.201,0.087-0.427,0.126-0.62,0.232c-1.569,0.885-2.959,2.226-4.172,4.031v-4.714h-6.899
	v40.797h7.343v-22.7c0-3.755,0.711-6.486,2.136-8.175c0.996-1.189,2.48-2.002,4.398-2.476
	C97.973,130.006,97.244,127.673,96.334,125.427"/>
<path fill="#001738" d="M69.491,145.271c0-9.028-6.557-16.346-14.646-16.346c-8.09,0-14.647,7.317-14.647,16.346
	c0,9.029,6.557,16.349,14.647,16.349C62.934,161.619,69.491,154.3,69.491,145.271"/>
<path fill="#FFFFFF" d="M68.624,165.771v-5.01c-1.879,1.955-3.976,3.439-6.285,4.436c-2.315,0.997-4.779,1.499-7.399,1.499
	c-6.133,0-11.225-2.041-15.282-6.138c-4.056-4.09-6.082-9.208-6.082-15.374c0-2.862,0.508-5.585,1.52-8.159
	c1.012-2.57,2.459-4.831,4.343-6.787c2.046-2.144,4.292-3.732,6.729-4.761c2.432-1.023,5.207-1.542,8.326-1.542
	c2.766,0,5.331,0.498,7.692,1.479c2.365,0.994,4.531,2.489,6.511,4.495v-18.144h7.345v54.006H68.624z M41.18,145.115
	c0,4.125,1.362,7.584,4.099,10.378c2.732,2.8,6.072,4.191,10.029,4.191c3.609,0,6.793-1.397,9.55-4.207
	c2.759-2.807,4.137-6.093,4.137-9.847c0-4.004-1.367-7.44-4.099-10.291c-2.733-2.853-5.979-4.281-9.733-4.281
	c-3.861,0-7.151,1.353-9.884,4.079C42.542,137.859,41.18,141.187,41.18,145.115"/>
</svg>
